<?xml version="1.0" encoding="utf-8"?>
<!-- Generator: Adobe Illustrator 18.0.0, SVG Export Plug-In . SVG Version: 6.00 Build 0)  -->
<!DOCTYPE svg PUBLIC "-//W3C//DTD SVG 1.1//EN" "http://www.w3.org/Graphics/SVG/1.1/DTD/svg11.dtd">
<svg version="1.1" id="Layer_1" xmlns="http://www.w3.org/2000/svg" xmlns:xlink="http://www.w3.org/1999/xlink" x="0px" y="0px"
	 width="223.5px" height="223.5px" viewBox="58.5 624.3 223.5 223.5" enable-background="new 58.5 624.3 223.5 223.5"
	 xml:space="preserve">
<path fill="#E39500" d="M58.5,624.3v223.5H282V624.3H58.5z M221.3,739.6c-11.6,46.3-17.6,78.6-17.6,97.1c-6.7,0-12-1.5-15.7-4.5
	c-3.8-3.2-6.7-8.8-8.8-17.2c-0.7-2.8-9.5-49.4-26-140.3c-22.1,70.8-36.1,115.4-42.1,134c-4.9,19.1-13.2,28.6-24.1,28.6l53.7-177.9
	c1-4.5,1.7-8.1,1.7-9.8c0-2.4-1-3.5-3.2-3.5c-6.7,0-12.7,5-18.2,14.3c-5.5,9.4-8.4,18.6-8.4,26.7c0,4.3,0.7,8.1,2.4,12
	c-13.7,0-20.7-5.6-20.7-16.5s6.2-22.1,19.3-33c12.5-10.8,24.4-16.5,34.9-16.5c2.8,0,5.6,0.3,8.1,1.5c2.4,1,4.5,2.8,6.7,5.2
	c2.1,2.4,3.5,5,5.2,7.3c1.5,2.4,2.8,5.6,4.3,10.2c1.5,4.5,2.4,8.4,3.2,11.6c0.7,3.2,1.7,7.7,2.8,13.7c1.1,6,1.7,11,2.4,14.3
	c0.3,3.5,1.5,8.8,2.1,15.5c5.2,36.1,9,61,11.6,74c2.1-8.4,5-21,9-38.6l10.2-43.1c2.8-11,6-22.1,9.5-34.1c3.5-11.6,6.7-20,9.5-24.8
	c5-8.8,12-13.3,20.3-13.3C243.7,657.8,233.2,693.6,221.3,739.6z"/>
</svg>
